<?xml version="1.0" encoding="UTF-8"?>
<svg id="Capa_2" data-name="Capa 2" xmlns="http://www.w3.org/2000/svg" viewBox="0 0 1008.25 1008.25">
  <defs>
    <style>
      .cls-1 {
        fill: #0dde8f;
      }

      .cls-2 {
        fill: #151519;
      }
    </style>
  </defs>
  <g id="Capa_1-2" data-name="Capa 1">
    <g>
      <circle class="cls-1" cx="504.12" cy="504.12" r="504.12"/>
      <path class="cls-2" d="M716.49,630.44l-143.61-228.04v-79.64h31.89v-41.85h-201.3v41.85h31.89v79.64l-143.61,228.04c-12.95,20.57-14.73,43.58-2.99,64.87,11.74,21.3,31.59,32.03,55.91,32.03h318.89c24.32,0,44.17-10.72,55.9-32.03,11.74-21.31,10.01-44.31-2.98-64.87h0ZM472.62,421.8c3.02-4.77,4.62-10.3,4.6-15.94v-83.1h53.81v84.3c0,4.87,1.38,9.65,3.99,13.77l69.57,110.2h-200.94l68.97-109.23Z"/>
    </g>
  </g>
</svg>