<?xml version="1.0" encoding="UTF-8"?>
<svg id="Capa_2" data-name="Capa 2" xmlns="http://www.w3.org/2000/svg" viewBox="0 0 1058.39 430.6">
  <defs>
    <style>
      .cls-1 {
        fill: #151519;
      }
    </style>
  </defs>
  <g id="Capa_1-2" data-name="Capa 1">
    <path class="cls-1" d="M1054.18,308.61c-7.69-25.84-28.37-50.09-57.34-60.23-43.92-15.36-67.39-1.89-76.2-4.71l-77.11-24.74c-11.09-3.56-21.94-6.8-33.14-9.38-5.27-1.21-6.13-2.42-9.01-7.18-1.28-2.12-8.48-3.25-5.4-7.42l.5.13c-1.82-4.43-6.01-7.06-7.44-11.32-.32.27-.64.47-.88.57-.88.41-2.58-.56-3.35-1.81l-40.03-64.54c.15-3.57,1.45-6.31.55-9.48-2.78-.45-7-.71-7.18-3.9l-1.17-21.13-14.17-1.21c-15.69-27.43-32.13-36.55-22.52-69.5-5.61-5.27-5.96-14.22-12.43-12.61-2,.49-10.67,12.45-10.99,13.69-.73,2.83,2.78,5.01,3.22,7.55,1.76,9.98-.32,19.75-.58,29.82l-.74,28.73-4.99,5.22-2.78,70.76c-.17,4.5,3.36,6.72,3.84,10.04,1.26,8.79-.75,17.89-.67,26.86-15.61,9.14-27.86,26.57-44.02,26.61l-133.82.25-8.63-10.76c-2.32-2.88.74-8.16-1.97-10.87-4.74-4.76-16.52-3.61-19.67,1.64-2.13,3.53,1.17,5.73,2.66,10.01-5.78,2.95-32.33-23.18-27.58-27.52-10.27-9.17-4.27-10.21-19.23-9.84l-43.73,1.08c-3.17.08-7.14.2-8.44-2.21-.85-1.57-1.73-5.17-.39-7.35l12.57-20.24c.62-1,.03-2.84-.52-3.16-2.97-1.72-14.83,18.49-16.43,23.15-1.06,3.05,1.46,7.74-1.69,10.02-1.63,1.18-4.74,2.45-7.97,2.24-14.03-.93-27.22,1.06-41.28,1.44-24.1.66-46.61,6.46-70.36,9.74-29.25,4.02-57.08,6.5-85.86,12.48-44.14,9.16-112.77,24.39-148.8,50.78C3.43,254.43.18,259.74,0,265.75c-.53,18.48,34.63,34.51,49.49,45.93,19.9,11.42,43.88,23.36,71.83,33.9,34.92,13.17,66.92,20.73,93.57,25.16,3.18,6.6,23.11,47.38,66.27,57.31,34.24,7.88,66.41-2.9,89.76-25.9,6.92-6.83,12.12-13.4,17.91-20.61,2.87-3.57,10.32.26,13.57-1.65,4.06-2.39,8.14-1.2,11.74-2.38,7.14-2.33,13.97-5.76,21.31-5.42,2.96.13,9.69-3.11,10.96,1.11,2.37,7.84,1.87,17.27.58,25.17-.68,4.23-5.59,7.1-4.22,12.33l392.87.13c.64-5.92-.37-10.24.84-15.82l47.28.11c19.37,17.63,42.33,30.25,68.72,33.78,30.83,4.11,61.93-7.27,82.43-30.58,21.53-24.49,29.01-56.86,19.26-89.69ZM693.88,189.18c-.28,2.39-7.97,3.93-9.2,1.9-1.07-1.78-4.97-32.25,8.1-32.71,1.47,10.92,2.28,20.66,1.1,30.81ZM713.65,132.6c-2.95,4.66.06,11.9-.17,17.1l-.93,20.54c-.26,5.9-2.59,10.54-1.44,16.03.41,1.97-1.49,2.49-2.33,2.77-1.58.52-3.7-.25-3.78-3.02l-.68-22.64c-.26-8.71,1.2-16.83.68-25.8-.73-12.4-2.57-24.5-.85-36.94,7.59,1.94,7.02,9.15,9.46,13.46,3.91,6.89,4.27,11.79.04,18.5ZM738.86,172.57c-3.57-3.82-1.85-12.13.09-17.54,6.62,8.49,11.09,16.2,16.29,27.24-5.78-1.03-12.14-5.17-16.38-9.7ZM771.28,184.34c-1.21.66-3.49.02-4.52-1.72l-25.48-42.41c-.56-.93-.48-2.6-.57-3.28-.1-.71,1.34-1.28,1.9-1.01.7.32,1.81,1.12,2.41,2.07l26.37,41.78c1.12,1.78.66,4.16-.11,4.58Z"/>
  </g>
</svg>